<svg xmlns="http://www.w3.org/2000/svg" viewBox="0 0 229 229"><defs><style>.cls-1{fill:#fff;}</style></defs><title>check</title><g id="Layer_2" data-name="Layer 2"><g id="Layer_1-2" data-name="Layer 1"><path class="cls-1" d="M114.5,0A114.5,114.5,0,1,0,229,114.5,114.5,114.5,0,0,0,114.5,0Zm-4.17,190.7a28.5,28.5,0,0,1-40.23,2.52h0c-.42-.37-.83-.76-1.22-1.15-.63-.59-1.23-1.21-1.81-1.87l-45-51A28.51,28.51,0,0,1,24.6,99h0a28.51,28.51,0,0,1,40.23,2.52l24.09,27.31L158.17,50.3a28.5,28.5,0,0,1,40.23-2.52h0A28.5,28.5,0,0,1,200.92,88Z"/></g></g></svg>