<svg xmlns="http://www.w3.org/2000/svg" viewBox="0 0 26.68 20"><defs><style>.cls-1{fill:#fff;}</style></defs><g id="Layer_2" data-name="Layer 2"><g id="Layer_1-2" data-name="Layer 1"><path class="cls-1" d="M22.39,20H4.28A4.28,4.28,0,0,1,0,15.72V4.28A4.28,4.28,0,0,1,4.28,0H22.39a4.29,4.29,0,0,1,4.29,4.28V15.72A4.29,4.29,0,0,1,22.39,20ZM4.28,1.25a3,3,0,0,0-3,3V15.72a3,3,0,0,0,3,3H22.39a3,3,0,0,0,3-3V4.28a3,3,0,0,0-3-3Z"/><path class="cls-1" d="M3.27,4.34l9.61,9.37c.6.58,1.51-.34.92-.92L4.19,3.43c-.6-.58-1.51.33-.92.91Z"/><path class="cls-1" d="M13.8,13.71l9.6-9.37c.6-.58-.32-1.49-.91-.91l-9.61,9.36c-.6.58.32,1.5.92.92Z"/><path class="cls-1" d="M23.37,15.91,17,9.85c-.6-.57-1.52.34-.91.92l6.39,6.06c.61.57,1.52-.34.92-.92Z"/><path class="cls-1" d="M4.28,16.83l6.39-6.06c.61-.58-.31-1.49-.91-.92L3.37,15.91c-.61.58.31,1.49.91.92Z"/></g></g></svg>