<svg xmlns="http://www.w3.org/2000/svg" viewBox="0 0 37.07 39.02"><defs><style>.cls-1{fill:#fff;}</style></defs><g id="Layer_2" data-name="Layer 2"><g id="Layer_1-2" data-name="Layer 1"><path class="cls-1" d="M26.26,35.05,18.59,24.82,10.73,35.05a18.77,18.77,0,0,1-2.89,3.06,4.72,4.72,0,0,1-3,.91,5.31,5.31,0,0,1-3.43-1.14A3.32,3.32,0,0,1,0,35.26q0-1.51,2.17-4.32l9.57-12.45L3.25,8.12Q1,5.56,1.05,3.66A3.24,3.24,0,0,1,2.36,1.09,5.22,5.22,0,0,1,5.81,0,4.88,4.88,0,0,1,8.89,1a18.63,18.63,0,0,1,2.85,3l6.85,8.51,6.66-8.51a17.16,17.16,0,0,1,2.89-3,4.92,4.92,0,0,1,3-.91,5.52,5.52,0,0,1,3.47,1.07A3.22,3.22,0,0,1,36,3.66a4.28,4.28,0,0,1-.56,2.09,16.21,16.21,0,0,1-1.72,2.37L25.25,18.49l9.57,12.45c1.5,1.94,2.25,3.41,2.25,4.39a3.21,3.21,0,0,1-1.4,2.6A5.41,5.41,0,0,1,32.22,39a4.88,4.88,0,0,1-3.07-1A16.67,16.67,0,0,1,26.26,35.05Z"/></g></g></svg>